# xmcd
#
# Track frame offsets:
#	150
#	18725
#	35691
#	55058
#	76685
#	98623
#	117365
#	135086
#	154683
#	175230
#
# Disc length: 2561 seconds
#
# Revision: 0
# Processed by: cddbd v1.5.2PL0 Copyright (c) Steve Scherf et al.
# Submitted via: EZCDAudioConverter 8.0.2.1
#
DISCID=6f09ff0a
DTITLE=Various Artist - The Bets Of Chinese Melodies 1. Nhớ Về Em
DYEAR=2004
DGENRE=Miscellaneous
TTITLE0=Johnny Dũng - Nhớ Về Em
TTITLE1=Tú Quyên - Bây giờ còn yêu
TTITLE2=Minh Tuyết - Phút ban đầu
TTITLE3=Tú Quyên - Khi tình yêu tạ từ
TTITLE4=Johnny Dũng - Tiễn bạn lên đường
TTITLE5=Bao Huy - Kiếp ve sầu
TTITLE6=Minh Tuyết - Tình vô tận
TTITLE7=Tú Quyên - Tìm đâu phút vui xưa
TTITLE8=Johnny Dũng - Tình bạn
TTITLE9=Tú Quyên - Mai Hoa
EXTD=
EXTT0=
EXTT1=
EXTT2=
EXTT3=
EXTT4=
EXTT5=
EXTT6=
EXTT7=
EXTT8=
EXTT9=
PLAYORDER=
